<svg version="1.1" xmlns="http://www.w3.org/2000/svg" xmlns:xlink="http://www.w3.org/1999/xlink" x="0px" y="0px"
	 width="46.012px" height="46.013px" viewBox="0 0 46.012 46.013" style="enable-background:new 0 0 46.012 46.013;"
	 xml:space="preserve">
<g>
	<path d="M40.876,5.443c-0.49-0.836-1.24-1.559-2.203-2.17C38.173,1.392,36.477,0,34.44,0c-2.429,0-4.397,1.97-4.397,4.397
		c0,2.429,1.971,4.397,4.397,4.397c0.94,0,1.812-0.303,2.526-0.808c0.375,1.085-0.06,4.139-2.291,8.032
		c-2.428,4.236-5.101,6.211-6.142,6.211c-1.348,0-4.696-2.945-7.09-7.74c-1.703-3.414-1.862-5.795-1.438-6.451
		c0.705,0.477,1.551,0.756,2.465,0.756c2.429,0,4.397-1.969,4.397-4.397C26.868,1.969,24.899,0,22.47,0
		c-2.145,0-3.926,1.537-4.314,3.568c-0.746,0.486-1.354,1.038-1.817,1.654c-2.444,3.252-0.438,8.493,0.979,11.327
		c1.582,3.171,4.955,8.146,8.795,9.761v8.748c0,4.679-3.08,6.345-5.961,6.345c-2.879,0-5.959-1.666-5.959-6.345v-1.842
		c2.959-1.005,5.098-3.803,5.098-7.097c0-4.134-3.363-7.497-7.498-7.497c-4.133,0-7.496,3.363-7.496,7.497
		c0,3.363,2.229,6.218,5.285,7.162v1.774c0,6.451,4.348,10.957,10.57,10.957c6.227,0,10.575-4.506,10.575-10.957v-8.653
		c3.881-1.481,6.981-6.397,7.95-8.089C39.806,16.345,43.304,9.593,40.876,5.443z M11.792,23.236c1.59,0,2.885,1.293,2.885,2.883
		c0,1.591-1.295,2.884-2.885,2.884c-1.591,0-2.884-1.293-2.884-2.884C8.908,24.529,10.201,23.236,11.792,23.236z"/>
</g>
<g>
</g>
<g>
</g>
<g>
</g>
<g>
</g>
<g>
</g>
<g>
</g>
<g>
</g>
<g>
</g>
<g>
</g>
<g>
</g>
<g>
</g>
<g>
</g>
<g>
</g>
<g>
</g>
<g>
</g>
</svg>
