<svg enable-background="new 0 0 512 512" height="512" viewBox="0 0 512 512" width="512" xmlns="http://www.w3.org/2000/svg"><g><g><path d="m78.257 300.235h-57.176c-11.643 0-21.081 9.438-21.081 21.081v190.684h78.257z"/><path d="m433.743 300.235v211.765h78.257v-190.684c0-11.643-9.438-21.081-21.081-21.081z"/></g><g><path d="m256 0c-54.096 0-97.949 43.853-97.949 97.949v32.79h195.897v-32.79c.001-54.096-43.852-97.949-97.948-97.949zm16.985 86.985h-1.985v1.986c0 8.284-6.716 15-15 15s-15-6.716-15-15v-1.986h-1.985c-8.284 0-15-6.716-15-15s6.716-15 15-15h1.985v-1.985c0-8.284 6.716-15 15-15s15 6.716 15 15v1.985h1.985c8.284 0 15 6.716 15 15 0 8.285-6.715 15-15 15z"/><g><path d="m199.5 421.66h41.5v90.34h-41.5z"/><path d="m271 421.66h41.5v90.34h-41.5z"/><path d="m388.743 160.738h-265.486c-8.284 0-15 6.716-15 15v336.262h61.243v-105.34c0-8.284 6.716-15 15-15h143c8.284 0 15 6.716 15 15v105.34h61.243v-336.262c0-8.284-6.716-15-15-15zm-198.017 200.922h-12.451c-8.284 0-15-6.716-15-15s6.716-15 15-15h12.451c8.284 0 15 6.716 15 15s-6.716 15-15 15zm0-60h-12.451c-8.284 0-15-6.716-15-15s6.716-15 15-15h12.451c8.284 0 15 6.716 15 15s-6.716 15-15 15zm0-60h-12.451c-8.284 0-15-6.716-15-15s6.716-15 15-15h12.451c8.284 0 15 6.716 15 15s-6.716 15-15 15zm71.5 120h-12.451c-8.284 0-15-6.716-15-15s6.716-15 15-15h12.451c8.284 0 15 6.716 15 15s-6.716 15-15 15zm0-60h-12.451c-8.284 0-15-6.716-15-15s6.716-15 15-15h12.451c8.284 0 15 6.716 15 15s-6.716 15-15 15zm0-60h-12.451c-8.284 0-15-6.716-15-15s6.716-15 15-15h12.451c8.284 0 15 6.716 15 15s-6.716 15-15 15zm71.5 120h-12.451c-8.284 0-15-6.716-15-15s6.716-15 15-15h12.451c8.284 0 15 6.716 15 15s-6.716 15-15 15zm0-60h-12.451c-8.284 0-15-6.716-15-15s6.716-15 15-15h12.451c8.284 0 15 6.716 15 15s-6.716 15-15 15zm0-60h-12.451c-8.284 0-15-6.716-15-15s6.716-15 15-15h12.451c8.284 0 15 6.716 15 15s-6.716 15-15 15z"/></g></g></g></svg>