<svg xmlns="http://www.w3.org/2000/svg" viewBox="0 0 371.44 145.6"><path d="M0,25.92H15.04V77.28H57.6V25.92H72.64V77.28H95.52V92H72.64v49.12H57.6V92H15.04v49.12H0Z"/><path d="M158.08,25.92v115.2H143.04V111.2H108a126.261,126.261,0,0,0-7.52,29.92H85.44a154.961,154.961,0,0,1,23.68-65.6,155.942,155.942,0,0,1,48.96-49.6ZM114.24,96.48h28.8v-40a145.686,145.686,0,0,0-28.8,40Z"/><path d="M193.12,25.92v89.44c14.72-8.8,26.08-21.6,34.08-38.56a119.458,119.458,0,0,0,10.88-50.88h15.04v115.2H238.08V88.32q-20.16,37.2-60,52.8V25.92ZM213.6,4.32v7.36c7.04,0,11.36-3.84,12.8-11.68h11.04c-1.6,15.36-13.28,23.04-34.88,23.04V4.32Z" /><path d="M371.44,130.4c-12,10.08-25.44,15.2-40.48,15.2-16.96,0-31.52-6.08-43.68-18.4q-18.24-18.24-18.24-43.68c0-17.12,6.08-31.68,18.24-43.84a59.336,59.336,0,0,1,43.68-18.24c15.04,0,28.64,5.12,40.48,15.52V59.84a46.28,46.28,0,0,0-16.96-17.28,45.778,45.778,0,0,0-23.52-6.24q-19.2,0-33.12,13.92a45.8,45.8,0,0,0-13.76,33.28,45.543,45.543,0,0,0,13.76,33.28,46.153,46.153,0,0,0,56.48,7.52,45.111,45.111,0,0,0,17.12-17.12Z"/></svg>