<svg enable-background="new 0 0 24 24" height="512" viewBox="0 0 24 24" width="512" xmlns="http://www.w3.org/2000/svg"><g><path d="m18.328 7.188c-.054-.119-.054-.256 0-.375l.496-1.093c.223-.491.233-1.059.026-1.557-.206-.498-.614-.893-1.119-1.082l-1.125-.422c-.123-.046-.219-.143-.266-.266l-.422-1.124c-.189-.505-.583-.913-1.082-1.119-.498-.208-1.066-.198-1.556.026l-1.094.497c-.119.054-.255.054-.375 0l-1.093-.496c-.491-.224-1.06-.234-1.557-.026-.497.204-.891.613-1.08 1.117l-.422 1.125c-.047.123-.143.219-.266.266l-1.124.422c-.505.189-.914.583-1.12 1.081s-.196 1.066.026 1.556l.497 1.094c.054.119.054.256 0 .375l-.496 1.094c-.223.491-.233 1.059-.027 1.557s.614.893 1.119 1.082l1.125.422c.123.046.219.143.266.266l.422 1.124c.189.505.583.913 1.082 1.119.239.099.493.148.748.148.276 0 .553-.058.809-.174l1.094-.497c.119-.054.255-.054.375 0l1.093.496c.491.224 1.06.232 1.557.026.498-.206.893-.614 1.082-1.119l.422-1.125c.046-.123.143-.219.266-.266l1.124-.422c.505-.189.913-.583 1.119-1.082.207-.498.197-1.065-.026-1.556zm-6.328 3.812c-2.206 0-4-1.794-4-4s1.794-4 4-4 4 1.794 4 4-1.794 4-4 4z"/></g><g><path d="m11.1 19.14-2.52 4.48c-.13.23-.39.38-.66.38 0 0-.01 0-.02 0-.27-.01-.52-.17-.65-.42l-1.36-2.77-3.08.23c-.28.03-.54-.11-.69-.34s-.16-.53-.03-.77l4.14-7.42.19.07.26.68c.33.89 1.03 1.61 1.91 1.98.12.05.24.09.37.12z"/></g><g><path d="m21.88 20.7c-.15.24-.41.37-.69.35l-3.14-.24-1.37 2.77c-.13.25-.38.41-.66.42 0 0-.01 0-.02 0-.27 0-.52-.15-.65-.38l-3.39-6.01-1.25-2.21c.22-.05.43-.12.63-.21l.66-.3.66.3c.17.08.36.14.55.19.28.08.58.12.88.12.46 0 .9-.09 1.32-.26.88-.37 1.58-1.09 1.91-1.98l.26-.68.14-.05 4.18 7.4c.14.24.13.54-.02.77z"/></g></svg>