<?xml version="1.0" encoding="utf-8"?><svg viewBox="0 0 512 512" xmlns="http://www.w3.org/2000/svg" xmlns:xlink="http://www.w3.org/1999/xlink"><style>:root>svg{display:none}:root>svg:target{display:block}</style><svg viewBox="0 0 16.512 25.451" id="arrow" xmlns="http://www.w3.org/2000/svg"><path d="M0 24.93v-2.006l12.412-9.788a.529.529 0 000-.82L0 2.526v-2A.523.523 0 01.846.113l15.472 12.2a.53.53 0 010 .82L.846 25.338A.515.515 0 01.3 25.4a.523.523 0 01-.3-.47z"/></svg><svg viewBox="0 0 512 512" id="heart" xmlns="http://www.w3.org/2000/svg"><path d="M469.585 80.732c-55.679-52.984-146.306-52.984-202.003-.012l-11.581 11-11.569-10.995c-55.703-52.979-146.318-52.973-202.021 0C15.061 106.739 0 141.244 0 177.874c0 36.642 15.061 71.141 42.415 97.166l201.219 191.033A17.886 17.886 0 00256 471.007c4.449 0 8.899-1.647 12.366-4.94L469.585 275.04C496.933 249.021 512 214.517 512 177.88c0-36.636-15.067-71.135-42.415-97.148zm-24.756 168.259L256 428.269 67.177 248.997C47.026 229.835 35.93 204.576 35.93 177.88s11.096-51.955 31.247-71.117c21.019-20.001 48.625-29.995 76.237-29.995 27.618 0 55.236 10.006 76.255 30.007l23.953 22.75c6.934 6.593 17.815 6.593 24.75 0l23.959-22.762c42.044-39.996 110.448-39.996 152.492 0 20.145 19.163 31.247 44.421 31.247 71.117s-11.102 51.949-31.241 71.111z"/></svg><svg viewBox="0 0 371.44 145.6" id="logo" xmlns="http://www.w3.org/2000/svg"><path d="M0 25.92h15.04v51.36H57.6V25.92h15.04v51.36h22.88V92H72.64v49.12H57.6V92H15.04v49.12H0zM158.08 25.92v115.2h-15.04V111.2H108a126.261 126.261 0 00-7.52 29.92H85.44a154.961 154.961 0 0123.68-65.6 155.942 155.942 0 0148.96-49.6zm-43.84 70.56h28.8v-40a145.686 145.686 0 00-28.8 40zM193.12 25.92v89.44c14.72-8.8 26.08-21.6 34.08-38.56a119.458 119.458 0 0010.88-50.88h15.04v115.2h-15.04v-52.8q-20.16 37.2-60 52.8V25.92zm20.48-21.6v7.36c7.04 0 11.36-3.84 12.8-11.68h11.04c-1.6 15.36-13.28 23.04-34.88 23.04V4.32zM371.44 130.4c-12 10.08-25.44 15.2-40.48 15.2-16.96 0-31.52-6.08-43.68-18.4q-18.24-18.24-18.24-43.68c0-17.12 6.08-31.68 18.24-43.84a59.336 59.336 0 0143.68-18.24c15.04 0 28.64 5.12 40.48 15.52v22.88a46.28 46.28 0 00-16.96-17.28 45.778 45.778 0 00-23.52-6.24q-19.2 0-33.12 13.92a45.8 45.8 0 00-13.76 33.28 45.543 45.543 0 0013.76 33.28 46.153 46.153 0 0056.48 7.52 45.111 45.111 0 0017.12-17.12z"/></svg><svg viewBox="0 0 512 512" id="magnifying-glass" xmlns="http://www.w3.org/2000/svg"><path d="M495 466.2L377.2 348.4c29.2-35.6 46.8-81.2 46.8-130.9C424 103.5 331.5 11 217.5 11 103.4 11 11 103.5 11 217.5S103.4 424 217.5 424c49.7 0 95.2-17.5 130.8-46.7L466.1 495c8 8 20.9 8 28.9 0 8-7.9 8-20.9 0-28.8zm-277.5-83.3C126.2 382.9 52 308.7 52 217.5S126.2 52 217.5 52C308.7 52 383 126.3 383 217.5s-74.3 165.4-165.5 165.4z"/></svg><svg viewBox="0 0 60 66.989" id="pin" xmlns="http://www.w3.org/2000/svg"><path d="M38.7 58.348L30 66.989l-8.7-8.641A29.846 29.846 0 1160 29.812a29.847 29.847 0 01-21.3 28.536z" fill="#0090f0"/><circle cx="30.75" cy="29.713" r="18" fill="#f9f9f9"/></svg></svg>