<?xml version="1.0" encoding="utf-8"?><svg viewBox="0 0 512 512" xmlns="http://www.w3.org/2000/svg" xmlns:xlink="http://www.w3.org/1999/xlink"><style>:root>svg{display:none}:root>svg:target{display:block}</style><svg viewBox="0 0 16.512 25.451" id="arrow" xmlns="http://www.w3.org/2000/svg"><path d="M0 24.93v-2.006l12.412-9.788a.529.529 0 000-.82L0 2.526v-2A.523.523 0 01.846.113l15.472 12.2a.53.53 0 010 .82L.846 25.338A.515.515 0 01.3 25.4a.523.523 0 01-.3-.47z"/></svg><svg viewBox="0 0 27 28" id="close" xmlns="http://www.w3.org/2000/svg"><path d="M1.833.918l24.748 24.749-1.414 1.414L.418 2.333 1.833.918z"/><path d="M25.167.918L.418 25.667l1.415 1.414L26.581 2.333 25.167.918z"/></svg><svg viewBox="0 0 512 512" id="deal" xmlns="http://www.w3.org/2000/svg"><path d="M208.057 362.515c-15.603-10.082-36.424-5.606-46.506 9.996 10.082-15.603 5.606-36.424-9.996-46.506-15.603-10.082-36.424-5.606-46.506 9.996 10.082-15.603 5.606-36.424-9.996-46.506-15.603-10.082-36.424-5.606-46.506 9.996l-34.484 53.367c-10.082 15.603-5.606 36.424 9.996 46.506 15.603 10.082 36.424 5.606 46.506-9.996-10.082 15.603-5.606 36.424 9.996 46.506 15.603 10.082 36.424 5.606 46.506-9.996-10.082 15.603-5.606 36.424 9.996 46.506s36.424 5.606 46.506-9.996l34.484-53.367c10.082-15.603 5.606-36.425-9.996-46.506z"/><path d="M436.601 270.49l-.902-.587L264.31 158.311l-27.309 41.448c-12.201 18.777-32.847 29.983-55.264 29.983a65.673 65.673 0 01-35.716-10.548c-30.505-19.712-39.287-60.566-19.603-91.029l16.405-25.475-57.557-13.847L0 264.877l20.909 17.996.565-.875c12.19-18.865 32.885-30.127 55.358-30.125a65.683 65.683 0 0135.713 10.548c10.11 6.532 18.066 15.492 23.267 26.008a65.681 65.681 0 0133.235 10.502c10.11 6.532 18.066 15.492 23.267 26.007a65.656 65.656 0 0133.235 10.503c30.505 19.711 39.287 60.566 19.575 91.071l-18.284 28.296 28.307 18.767c15.603 10.082 36.424 5.606 46.506-9.996 10.082-15.603 5.606-36.424-9.996-46.506l11.442 7.394c15.603 10.082 36.424 5.606 46.506-9.996 10.082-15.603 5.606-36.423-9.995-46.505l11.441 7.393c15.603 10.082 36.424 5.606 46.506-9.996 10.081-15.602 5.608-36.42-9.992-46.503l11.438 7.391c15.603 10.082 36.424 5.606 46.506-9.996 9.845-15.233 5.807-35.434-8.908-45.765z"/><path d="M467.068 33.035l-246.101 7.839-67.449 104.74c-10.082 15.603-5.606 36.424 9.996 46.506 15.603 10.082 36.424 5.606 46.506-9.996l45.013-68.316 9.854 6.416 177.625 115.652L512 184.419 467.068 33.035z"/></svg><svg viewBox="0 0 46.012 46.013" id="doctor" xmlns="http://www.w3.org/2000/svg"><path d="M40.876 5.443c-.49-.836-1.24-1.559-2.203-2.17C38.173 1.392 36.477 0 34.44 0a4.398 4.398 0 000 8.794c.94 0 1.812-.303 2.526-.808.375 1.085-.06 4.139-2.291 8.032-2.428 4.236-5.101 6.211-6.142 6.211-1.348 0-4.696-2.945-7.09-7.74-1.703-3.414-1.862-5.795-1.438-6.451A4.397 4.397 0 1022.47 0a4.394 4.394 0 00-4.314 3.568c-.746.486-1.354 1.038-1.817 1.654-2.444 3.252-.438 8.493.979 11.327 1.582 3.171 4.955 8.146 8.795 9.761v8.748c0 4.679-3.08 6.345-5.961 6.345-2.879 0-5.959-1.666-5.959-6.345v-1.842c2.959-1.005 5.098-3.803 5.098-7.097 0-4.134-3.363-7.497-7.498-7.497-4.133 0-7.496 3.363-7.496 7.497 0 3.363 2.229 6.218 5.285 7.162v1.774c0 6.451 4.348 10.957 10.57 10.957 6.227 0 10.575-4.506 10.575-10.957v-8.653c3.881-1.481 6.981-6.397 7.95-8.089 1.129-1.968 4.627-8.72 2.199-12.87zM11.792 23.236a2.888 2.888 0 012.885 2.883 2.888 2.888 0 01-2.885 2.884 2.886 2.886 0 01-2.884-2.884 2.886 2.886 0 012.884-2.883z"/></svg><svg viewBox="0 0 231.233 231.233" id="gear" xmlns="http://www.w3.org/2000/svg"><path d="M230.505 102.78c-.365-3.25-4.156-5.695-7.434-5.695-10.594 0-19.996-6.218-23.939-15.842-4.025-9.855-1.428-21.346 6.465-28.587a6.425 6.425 0 00.705-8.721 114.457 114.457 0 00-18.316-18.498c-2.633-2.112-6.502-1.818-8.787.711-6.891 7.632-19.27 10.468-28.836 6.477-9.951-4.187-16.232-14.274-15.615-25.101a6.416 6.416 0 00-5.676-6.755c-8.637-1-17.35-1.029-26.012-.068a6.437 6.437 0 00-5.723 6.617c.375 10.721-5.977 20.63-15.832 24.667-9.451 3.861-21.744 1.046-28.621-6.519a6.444 6.444 0 00-8.725-.731 114.933 114.933 0 00-18.703 18.492 6.432 6.432 0 00.689 8.784C34.194 59.3 36.789 70.89 32.61 80.86c-3.99 9.505-13.859 15.628-25.156 15.628-3.666-.118-6.275 2.345-6.68 5.679a115.898 115.898 0 00-.049 26.289c.365 3.264 4.268 5.688 7.582 5.688 10.07-.256 19.732 5.974 23.791 15.841 4.039 9.855 1.439 21.341-6.467 28.592-2.473 2.273-2.789 6.07-.701 8.709a114.863 114.863 0 0018.287 18.505 6.43 6.43 0 008.801-.697c6.918-7.65 19.295-10.481 28.822-6.482 9.98 4.176 16.258 14.262 15.645 25.092a6.417 6.417 0 005.672 6.755c4.42.517 8.863.773 13.32.773 4.23 0 8.461-.231 12.692-.702a6.434 6.434 0 005.721-6.621c-.387-10.716 5.979-20.626 15.822-24.655 9.514-3.886 21.752-1.042 28.633 6.512a6.457 6.457 0 008.725.73 115.085 115.085 0 0018.703-18.493 6.422 6.422 0 00-.689-8.788c-8.047-7.284-10.656-18.879-6.477-28.839 3.928-9.377 13.43-15.673 23.65-15.673l1.43.038c3.318.269 6.367-2.286 6.768-5.671a115.39 115.39 0 00.05-26.29zm-114.889 79.49c-36.813 0-66.654-29.841-66.654-66.653s29.842-66.653 66.654-66.653 66.654 29.841 66.654 66.653c0 12.495-3.445 24.182-9.428 34.176l-29.186-29.187a40.761 40.761 0 003.228-15.957c0-10.915-4.251-21.176-11.97-28.893-7.717-7.717-17.978-11.967-28.891-11.967-3.642 0-7.267.484-10.774 1.439a4.628 4.628 0 00-3.201 3.224c-.418 1.574.053 3.187 1.283 4.418 0 0 14.409 14.52 19.23 19.34.505.505.504 1.71.433 2.144l-.045.317c-.486 5.3-1.423 11.662-2.196 14.107-.104.103-.202.19-.308.296-.111.111-.213.218-.32.328-2.477.795-8.937 1.743-14.321 2.225l.001-.029-.242.061a2.095 2.095 0 01-.229.011c-.582 0-1.438-.163-2.216-.94-5.018-5.018-18.862-18.763-18.862-18.763-1.242-1.238-2.516-1.498-3.365-1.498-1.979 0-3.751 1.43-4.309 3.481-3.811 14.103.229 29.273 10.546 39.591 7.719 7.718 17.981 11.968 28.896 11.968a40.77 40.77 0 0015.956-3.228l29.503 29.503a66.317 66.317 0 01-35.867 10.486z"/></svg><svg viewBox="0 0 512 512" id="heart" xmlns="http://www.w3.org/2000/svg"><path d="M469.585 80.732c-55.679-52.984-146.306-52.984-202.003-.012l-11.581 11-11.569-10.995c-55.703-52.979-146.318-52.973-202.021 0C15.061 106.739 0 141.244 0 177.874c0 36.642 15.061 71.141 42.415 97.166l201.219 191.033A17.886 17.886 0 00256 471.007c4.449 0 8.899-1.647 12.366-4.94L469.585 275.04C496.933 249.021 512 214.517 512 177.88c0-36.636-15.067-71.135-42.415-97.148zm-24.756 168.259L256 428.269 67.177 248.997C47.026 229.835 35.93 204.576 35.93 177.88s11.096-51.955 31.247-71.117c21.019-20.001 48.625-29.995 76.237-29.995 27.618 0 55.236 10.006 76.255 30.007l23.953 22.75c6.934 6.593 17.815 6.593 24.75 0l23.959-22.762c42.044-39.996 110.448-39.996 152.492 0 20.145 19.163 31.247 44.421 31.247 71.117s-11.102 51.949-31.241 71.111z"/></svg><svg viewBox="0 0 512 512" id="hospital" xmlns="http://www.w3.org/2000/svg"><path d="M78.257 300.235H21.081C9.438 300.235 0 309.673 0 321.316V512h78.257zM433.743 300.235V512H512V321.316c0-11.643-9.438-21.081-21.081-21.081z"/><g><path d="M256 0c-54.096 0-97.949 43.853-97.949 97.949v32.79h195.897v-32.79C353.949 43.853 310.096 0 256 0zm16.985 86.985H271v1.986c0 8.284-6.716 15-15 15s-15-6.716-15-15v-1.986h-1.985c-8.284 0-15-6.716-15-15s6.716-15 15-15H241V55c0-8.284 6.716-15 15-15s15 6.716 15 15v1.985h1.985c8.284 0 15 6.716 15 15 0 8.285-6.715 15-15 15zM199.5 421.66H241V512h-41.5zM271 421.66h41.5V512H271z"/><path d="M388.743 160.738H123.257c-8.284 0-15 6.716-15 15V512H169.5V406.66c0-8.284 6.716-15 15-15h143c8.284 0 15 6.716 15 15V512h61.243V175.738c0-8.284-6.716-15-15-15zM190.726 361.66h-12.451c-8.284 0-15-6.716-15-15s6.716-15 15-15h12.451c8.284 0 15 6.716 15 15s-6.716 15-15 15zm0-60h-12.451c-8.284 0-15-6.716-15-15s6.716-15 15-15h12.451c8.284 0 15 6.716 15 15s-6.716 15-15 15zm0-60h-12.451c-8.284 0-15-6.716-15-15s6.716-15 15-15h12.451c8.284 0 15 6.716 15 15s-6.716 15-15 15zm71.5 120h-12.451c-8.284 0-15-6.716-15-15s6.716-15 15-15h12.451c8.284 0 15 6.716 15 15s-6.716 15-15 15zm0-60h-12.451c-8.284 0-15-6.716-15-15s6.716-15 15-15h12.451c8.284 0 15 6.716 15 15s-6.716 15-15 15zm0-60h-12.451c-8.284 0-15-6.716-15-15s6.716-15 15-15h12.451c8.284 0 15 6.716 15 15s-6.716 15-15 15zm71.5 120h-12.451c-8.284 0-15-6.716-15-15s6.716-15 15-15h12.451c8.284 0 15 6.716 15 15s-6.716 15-15 15zm0-60h-12.451c-8.284 0-15-6.716-15-15s6.716-15 15-15h12.451c8.284 0 15 6.716 15 15s-6.716 15-15 15zm0-60h-12.451c-8.284 0-15-6.716-15-15s6.716-15 15-15h12.451c8.284 0 15 6.716 15 15s-6.716 15-15 15z"/></g></svg><svg viewBox="-25 0 512 512" id="leadership" xmlns="http://www.w3.org/2000/svg"><path d="M101.844 312.39v-97.808a73.939 73.939 0 012.906-20.512H38.797c-10.695 0-20.395 4.352-27.418 11.375C4.355 212.47 0 222.172 0 232.863v77.828c0 9.473 3.457 18.196 9.184 24.98a38.969 38.969 0 0010.632 8.813v113.121c0 8.27 6.704 14.973 14.97 14.973h91.96V368.004c-15.723-14.195-24.902-34.418-24.902-55.613zm0 0M80.848 176.363c32.34 0 58.648-26.308 58.648-58.648s-26.309-58.649-58.648-58.649-58.649 26.309-58.649 58.649 26.309 58.648 58.649 58.648zm0 0M282.441 169.668H176.695c-12.375 0-23.605 5.043-31.738 13.172-8.133 8.133-13.172 19.363-13.172 31.742v97.809c0 10.968 4 21.07 10.621 28.918a45.137 45.137 0 0014.281 11.25v144.468c0 8.27 6.704 14.973 14.973 14.973h115.82c8.27 0 14.973-6.703 14.973-14.973V352.56a45.078 45.078 0 0014.277-11.25c6.625-7.848 10.625-17.946 10.625-28.918v-97.809c0-12.379-5.039-23.61-13.171-31.738-8.133-8.133-19.364-13.176-31.743-13.176zm0 0M229.547 139.727c38.523 0 69.863-31.34 69.863-69.864C299.41 31.34 268.07 0 229.547 0s-69.863 31.34-69.863 69.863c0 38.524 31.34 69.864 69.863 69.864zm0 0M449.77 205.445c-7.024-7.023-16.723-11.375-27.418-11.375H354.39a74.085 74.085 0 012.906 20.512v97.809c0 21.191-9.18 41.418-24.902 55.613v104.465c.59.07 1.195.11 1.808.11h92.156c8.27 0 14.973-6.704 14.973-14.974v-113.12a39.015 39.015 0 0010.633-8.813c5.726-6.785 9.183-15.508 9.183-24.98v-77.829c0-10.691-4.355-20.394-11.378-27.418zm0 0M380.262 176.363c32.34 0 58.648-26.308 58.648-58.648s-26.308-58.649-58.648-58.649c-32.336 0-58.649 26.309-58.649 58.649s26.313 58.648 58.649 58.648zm0 0"/></svg><svg viewBox="0 0 371.44 145.6" id="logo" xmlns="http://www.w3.org/2000/svg"><path d="M0 25.92h15.04v51.36H57.6V25.92h15.04v51.36h22.88V92H72.64v49.12H57.6V92H15.04v49.12H0zM158.08 25.92v115.2h-15.04V111.2H108a126.261 126.261 0 00-7.52 29.92H85.44a154.961 154.961 0 0123.68-65.6 155.942 155.942 0 0148.96-49.6zm-43.84 70.56h28.8v-40a145.686 145.686 0 00-28.8 40zM193.12 25.92v89.44c14.72-8.8 26.08-21.6 34.08-38.56a119.458 119.458 0 0010.88-50.88h15.04v115.2h-15.04v-52.8q-20.16 37.2-60 52.8V25.92zm20.48-21.6v7.36c7.04 0 11.36-3.84 12.8-11.68h11.04c-1.6 15.36-13.28 23.04-34.88 23.04V4.32zM371.44 130.4c-12 10.08-25.44 15.2-40.48 15.2-16.96 0-31.52-6.08-43.68-18.4q-18.24-18.24-18.24-43.68c0-17.12 6.08-31.68 18.24-43.84a59.336 59.336 0 0143.68-18.24c15.04 0 28.64 5.12 40.48 15.52v22.88a46.28 46.28 0 00-16.96-17.28 45.778 45.778 0 00-23.52-6.24q-19.2 0-33.12 13.92a45.8 45.8 0 00-13.76 33.28 45.543 45.543 0 0013.76 33.28 46.153 46.153 0 0056.48 7.52 45.111 45.111 0 0017.12-17.12z"/></svg><svg viewBox="0 0 512 512" id="magnifying-glass" xmlns="http://www.w3.org/2000/svg"><path d="M495 466.2L377.2 348.4c29.2-35.6 46.8-81.2 46.8-130.9C424 103.5 331.5 11 217.5 11 103.4 11 11 103.5 11 217.5S103.4 424 217.5 424c49.7 0 95.2-17.5 130.8-46.7L466.1 495c8 8 20.9 8 28.9 0 8-7.9 8-20.9 0-28.8zm-277.5-83.3C126.2 382.9 52 308.7 52 217.5S126.2 52 217.5 52C308.7 52 383 126.3 383 217.5s-74.3 165.4-165.5 165.4z"/></svg><svg viewBox="0 0 512 512" id="map" xmlns="http://www.w3.org/2000/svg"><path d="M439.669 481.888L238.293 375.264c-5.248-2.784-11.648-2.4-16.608.96L67.701 482.848a15.987 15.987 0 00-6.144 17.952c2.048 6.624 8.256 11.2 15.232 11.2h355.36c7.328 0 13.76-4.992 15.52-12.16 1.792-7.136-1.536-14.528-8-17.952zM507.061 451.488l-47.36-213.216c-1.152-5.216-4.832-9.472-9.792-11.424a16.023 16.023 0 00-14.944 1.728L280.949 335.2c-4.608 3.2-7.2 8.544-6.848 14.08a15.917 15.917 0 008.48 13.184l201.344 106.624c2.368 1.248 4.928 1.888 7.488 1.888 3.424 0 6.848-1.088 9.696-3.296a16.016 16.016 0 005.952-16.192zM395.637 203.232A16.037 16.037 0 00380.341 192H234.293c-26.56 48.096-65.856 94.08-82.016 112.064C143.189 314.176 130.165 320 116.565 320s-26.624-5.824-35.712-15.936c-6.24-6.944-15.904-18.048-26.976-31.808l-38.72 174.272a16.055 16.055 0 006.688 16.736c2.688 1.824 5.824 2.72 8.928 2.72 3.2 0 6.368-.928 9.12-2.848L389.429 221.12c5.792-3.936 8.256-11.2 6.208-17.888z"/><path d="M116.565 0c-61.76 0-112 50.24-112 112 0 57.472 89.856 159.264 100.096 170.688 3.04 3.36 7.36 5.312 11.904 5.312s8.864-1.952 11.904-5.312C138.709 271.264 228.565 169.472 228.565 112c0-61.76-50.24-112-112-112zm0 160c-26.496 0-48-21.504-48-48s21.504-48 48-48 48 21.504 48 48-21.504 48-48 48z"/></svg><svg viewBox="0 0 60 66.989" id="pin" xmlns="http://www.w3.org/2000/svg"><path d="M38.7 58.348L30 66.989l-8.7-8.641A29.846 29.846 0 1160 29.812a29.847 29.847 0 01-21.3 28.536z" fill="#0090f0"/><circle cx="30.75" cy="29.713" r="18" fill="#f9f9f9"/></svg><svg viewBox="0 0 24 24" id="quality" xmlns="http://www.w3.org/2000/svg"><path d="M18.328 7.188a.454.454 0 010-.375l.496-1.093a1.959 1.959 0 00-1.093-2.639l-1.125-.422a.456.456 0 01-.266-.266l-.422-1.124A1.956 1.956 0 0013.28.176l-1.094.497a.454.454 0 01-.375 0L10.718.177a1.952 1.952 0 00-2.637 1.091l-.422 1.125a.459.459 0 01-.266.266l-1.124.422c-.505.189-.914.583-1.12 1.081s-.196 1.066.026 1.556l.497 1.094a.454.454 0 010 .375l-.496 1.094c-.223.491-.233 1.059-.027 1.557s.614.893 1.119 1.082l1.125.422a.456.456 0 01.266.266l.422 1.124a1.956 1.956 0 002.639 1.093l1.094-.497a.454.454 0 01.375 0l1.093.496a1.959 1.959 0 002.639-1.093l.422-1.125a.456.456 0 01.266-.266l1.124-.422a1.956 1.956 0 001.093-2.638zM12 11c-2.206 0-4-1.794-4-4s1.794-4 4-4 4 1.794 4 4-1.794 4-4 4zM11.1 19.14l-2.52 4.48c-.13.23-.39.38-.66.38H7.9a.771.771 0 01-.65-.42l-1.36-2.77-3.08.23c-.28.03-.54-.11-.69-.34s-.16-.53-.03-.77l4.14-7.42.19.07.26.68c.33.89 1.03 1.61 1.91 1.98.12.05.24.09.37.12z"/><path d="M21.88 20.7a.74.74 0 01-.69.35l-3.14-.24-1.37 2.77c-.13.25-.38.41-.66.42H16c-.27 0-.52-.15-.65-.38l-3.39-6.01-1.25-2.21c.22-.05.43-.12.63-.21l.66-.3.66.3c.17.08.36.14.55.19.28.08.58.12.88.12.46 0 .9-.09 1.32-.26.88-.37 1.58-1.09 1.91-1.98l.26-.68.14-.05 4.18 7.4c.14.24.13.54-.02.77z"/></svg><svg viewBox="0 0 409.294 409.294" id="quote" xmlns="http://www.w3.org/2000/svg"><path d="M0 204.647v175.412h175.412V204.647H58.471c0-64.48 52.461-116.941 116.941-116.941V29.235C78.684 29.235 0 107.919 0 204.647zM409.294 87.706V29.235c-96.728 0-175.412 78.684-175.412 175.412v175.412h175.412V204.647H292.353c0-64.48 52.461-116.941 116.941-116.941z"/></svg><svg viewBox="0 0 511.973 511.973" id="study" xmlns="http://www.w3.org/2000/svg"><path d="M502.332 177.307c-1.414-.614-35.889-15.549-240-104a15.982 15.982 0 00-12.72 0l-240 104c-12.878 5.569-12.754 23.849 0 29.36 46.624 20.201 122.845 53.234 240 104a15.978 15.978 0 0012.72 0c11.125-4.821 162.711-70.509 169.64-73.51v170.381c0 8.618 6.626 16.031 15.235 16.431 9.188.428 16.765-6.888 16.765-15.982V231.354a4.994 4.994 0 00-4.356-4.958c-30.031-3.87-171.66-22.15-205.694-26.539-9.844-1.23-15.978-11.198-13.39-20.07 2.03-7.493 9.144-12.266 16.35-11.77.718.042 228.73 29.466 228.567 29.445a12.06 12.06 0 019.444 6.975c1.176 2.586 4.17 3.771 6.742 2.565 4.305-2.018 8.039-4.674 9.737-10.685 2.186-7.789-1.764-15.864-9.04-19.01z"/><path d="M236.882 340.027L102.96 281.995c-3.302-1.431-6.988.99-6.988 4.588v57.404c0 53.83 70.28 96 160 96s160-42.17 160-96v-57.404c0-3.598-3.686-6.018-6.988-4.588l-133.932 58.032a47.936 47.936 0 01-38.17 0z"/></svg></svg>